<svg width="20" height="20" viewBox="8 8 16 16" fill="none" xmlns="http://www.w3.org/2000/svg">
<g clip-path="url(#clip0_150_463)">
<path d="M9 9.75C9 8.784 9.784 8 10.75 8H18.336C18.8 8 19.245 8.184 19.573 8.513L22.487 11.427C22.816 11.755 23 12.2 23 12.664V22.25C23 22.7141 22.8156 23.1592 22.4874 23.4874C22.1592 23.8156 21.7141 24 21.25 24H10.75C10.2859 24 9.84075 23.8156 9.51256 23.4874C9.18437 23.1592 9 22.7141 9 22.25V9.75ZM10.75 9.5C10.6837 9.5 10.6201 9.52634 10.5732 9.57322C10.5263 9.62011 10.5 9.6837 10.5 9.75V22.25C10.5 22.388 10.612 22.5 10.75 22.5H21.25C21.3163 22.5 21.3799 22.4737 21.4268 22.4268C21.4737 22.3799 21.5 22.3163 21.5 22.25V12.664C21.5001 12.6311 21.4936 12.5986 21.4811 12.5682C21.4686 12.5379 21.4502 12.5103 21.427 12.487L18.513 9.573C18.4897 9.5498 18.4621 9.53141 18.4318 9.51888C18.4014 9.50636 18.3689 9.49994 18.336 9.5H10.75ZM16 11.25C16.1989 11.25 16.3897 11.329 16.5303 11.4697C16.671 11.6103 16.75 11.8011 16.75 12V13.5H18.25C18.4489 13.5 18.6397 13.579 18.7803 13.7197C18.921 13.8603 19 14.0511 19 14.25C19 14.4489 18.921 14.6397 18.7803 14.7803C18.6397 14.921 18.4489 15 18.25 15H16.75V16.5C16.75 16.6989 16.671 16.8897 16.5303 17.0303C16.3897 17.171 16.1989 17.25 16 17.25C15.8011 17.25 15.6103 17.171 15.4697 17.0303C15.329 16.8897 15.25 16.6989 15.25 16.5V15H13.75C13.5511 15 13.3603 14.921 13.2197 14.7803C13.079 14.6397 13 14.4489 13 14.25C13 14.0511 13.079 13.8603 13.2197 13.7197C13.3603 13.579 13.5511 13.5 13.75 13.5H15.25V12C15.25 11.8011 15.329 11.6103 15.4697 11.4697C15.6103 11.329 15.8011 11.25 16 11.25ZM13 19.25C13 19.0511 13.079 18.8603 13.2197 18.7197C13.3603 18.579 13.5511 18.5 13.75 18.5H18.25C18.4489 18.5 18.6397 18.579 18.7803 18.7197C18.921 18.8603 19 19.0511 19 19.25C19 19.4489 18.921 19.6397 18.7803 19.7803C18.6397 19.921 18.4489 20 18.25 20H13.75C13.5511 20 13.3603 19.921 13.2197 19.7803C13.079 19.6397 13 19.4489 13 19.25Z" fill="#e30202"/>
</g>
</svg>
