<svg width="18" height="18" viewBox="0 0 18 18" fill="none" xmlns="http://www.w3.org/2000/svg">
<path d="M9 2C9.97233 2 10.8794 2.1843 11.7266 2.5498C12.5835 2.91956 13.3246 3.41839 13.9531 4.04688C14.5816 4.67536 15.0804 5.41653 15.4502 6.27344C15.8157 7.12057 16 8.02767 16 9C16 9.97233 15.8157 10.8794 15.4502 11.7266C15.0804 12.5835 14.5816 13.3246 13.9531 13.9531C13.3246 14.5816 12.5835 15.0804 11.7266 15.4502C10.8794 15.8157 9.97233 16 9 16C8.02767 16 7.12057 15.8157 6.27344 15.4502C5.41653 15.0804 4.67536 14.5816 4.04688 13.9531C3.41839 13.3246 2.91956 12.5835 2.5498 11.7266C2.1843 10.8794 2 9.97233 2 9C2 8.02767 2.1843 7.12057 2.5498 6.27344C2.91956 5.41653 3.41839 4.67536 4.04688 4.04688C4.67536 3.41839 5.41653 2.91956 6.27344 2.5498C7.12057 2.1843 8.02767 2 9 2ZM9 2.5C7.19519 2.5 5.64886 3.13239 4.39062 4.39062C3.13239 5.64886 2.5 7.19519 2.5 9C2.5 10.8048 3.13239 12.3511 4.39062 13.6094C5.64886 14.8676 7.19519 15.5 9 15.5C10.8048 15.5 12.3511 14.8676 13.6094 13.6094C14.8676 12.3511 15.5 10.8048 15.5 9C15.5 7.19519 14.8676 5.64886 13.6094 4.39062C12.3511 3.13239 10.8048 2.5 9 2.5ZM12.043 6.2998L9.34277 9L12.043 11.7002L11.7002 12.043L9 9.34277L6.2998 12.043L5.95703 11.7002L8.65723 9L5.95703 6.2998L6.2998 5.95703L9 8.65723L11.7002 5.95703L12.043 6.2998Z" fill="#E21212" stroke="#E21212"/>
</svg>
