<svg xmlns="http://www.w3.org/2000/svg" width="18" height="18" viewBox="0 0 18 18" fill="none">
  <path d="M7.5 0.5C8.47233 0.5 9.37944 0.684305 10.2266 1.0498C11.0835 1.41956 11.8246 1.91839 12.4531 2.54688C13.0816 3.17536 13.5804 3.91653 13.9502 4.77344C14.3157 5.62056 14.5 6.52767 14.5 7.5C14.5 8.47233 14.3157 9.37944 13.9502 10.2266C13.5804 11.0835 13.0816 11.8246 12.4531 12.4531C11.8246 13.0816 11.0835 13.5804 10.2266 13.9502C9.37944 14.3157 8.47233 14.5 7.5 14.5C6.52767 14.5 5.62056 14.3157 4.77344 13.9502C3.91653 13.5804 3.17536 13.0816 2.54688 12.4531C1.91839 11.8246 1.41956 11.0835 1.0498 10.2266C0.684305 9.37944 0.5 8.47233 0.5 7.5C0.5 6.52767 0.684305 5.62056 1.0498 4.77344C1.41956 3.91653 1.91839 3.17536 2.54688 2.54688C3.17536 1.91839 3.91653 1.41956 4.77344 1.0498C5.62056 0.684305 6.52767 0.5 7.5 0.5ZM7.5 1C5.69519 1 4.14886 1.63239 2.89062 2.89062C1.63239 4.14886 1 5.69519 1 7.5C1 9.30481 1.63239 10.8511 2.89062 12.1094C4.14886 13.3676 5.69519 14 7.5 14C9.30481 14 10.8511 13.3676 12.1094 12.1094C13.3676 10.8511 14 9.30481 14 7.5C14 5.69519 13.3676 4.14886 12.1094 2.89062C10.8511 1.63239 9.30481 1 7.5 1ZM11.5225 4.7998L5.91602 10.1113L3.47656 7.7998L3.8584 7.43848L5.57324 9.0625L5.91699 9.38867L6.26074 9.0625L11.1416 4.43848L11.5225 4.7998Z" fill="#3CA133" stroke="#3CA133"/>
</svg>