<svg width="20" height="20" viewBox="0 0 20 20" fill="none" xmlns="http://www.w3.org/2000/svg">
<path d="M12.7501 13.9167L13.9167 12.75L10.8334 9.66666V5.83332H9.16675V10.3333L12.7501 13.9167ZM10.0001 18.3333C8.8473 18.3333 7.76397 18.1146 6.75008 17.6771C5.73619 17.2396 4.85425 16.6458 4.10425 15.8958C3.35425 15.1458 2.7605 14.2639 2.323 13.25C1.8855 12.2361 1.66675 11.1528 1.66675 9.99999C1.66675 8.84721 1.8855 7.76388 2.323 6.74999C2.7605 5.7361 3.35425 4.85416 4.10425 4.10416C4.85425 3.35416 5.73619 2.76041 6.75008 2.32291C7.76397 1.88541 8.8473 1.66666 10.0001 1.66666C11.1529 1.66666 12.2362 1.88541 13.2501 2.32291C14.264 2.76041 15.1459 3.35416 15.8959 4.10416C16.6459 4.85416 17.2397 5.7361 17.6772 6.74999C18.1147 7.76388 18.3334 8.84721 18.3334 9.99999C18.3334 11.1528 18.1147 12.2361 17.6772 13.25C17.2397 14.2639 16.6459 15.1458 15.8959 15.8958C15.1459 16.6458 14.264 17.2396 13.2501 17.6771C12.2362 18.1146 11.1529 18.3333 10.0001 18.3333ZM10.0001 16.6667C11.8473 16.6667 13.4202 16.0174 14.7188 14.7187C16.0174 13.4201 16.6667 11.8472 16.6667 9.99999C16.6667 8.15277 16.0174 6.57985 14.7188 5.28124C13.4202 3.98263 11.8473 3.33332 10.0001 3.33332C8.15286 3.33332 6.57994 3.98263 5.28133 5.28124C3.98272 6.57985 3.33341 8.15277 3.33341 9.99999C3.33341 11.8472 3.98272 13.4201 5.28133 14.7187C6.57994 16.0174 8.15286 16.6667 10.0001 16.6667Z" fill="white"/>
</svg>
