<svg width="20" height="20" viewBox="0 0 20 20" fill="none" xmlns="http://www.w3.org/2000/svg">
<path d="M7.00002 14.1667L10 11.1667L13 14.1667L14.1667 13L11.1667 10L14.1667 7.00001L13 5.83334L10 8.83334L7.00002 5.83334L5.83335 7.00001L8.83335 10L5.83335 13L7.00002 14.1667ZM10 18.3333C8.84724 18.3333 7.76391 18.1146 6.75002 17.6771C5.73613 17.2396 4.85419 16.6458 4.10419 15.8958C3.35419 15.1458 2.76044 14.2639 2.32294 13.25C1.88544 12.2361 1.66669 11.1528 1.66669 10C1.66669 8.84723 1.88544 7.76389 2.32294 6.75C2.76044 5.73612 3.35419 4.85417 4.10419 4.10417C4.85419 3.35417 5.73613 2.76042 6.75002 2.32292C7.76391 1.88542 8.84724 1.66667 10 1.66667C11.1528 1.66667 12.2361 1.88542 13.25 2.32292C14.2639 2.76042 15.1459 3.35417 15.8959 4.10417C16.6459 4.85417 17.2396 5.73612 17.6771 6.75C18.1146 7.76389 18.3334 8.84723 18.3334 10C18.3334 11.1528 18.1146 12.2361 17.6771 13.25C17.2396 14.2639 16.6459 15.1458 15.8959 15.8958C15.1459 16.6458 14.2639 17.2396 13.25 17.6771C12.2361 18.1146 11.1528 18.3333 10 18.3333ZM10 16.6667C11.8611 16.6667 13.4375 16.0208 14.7292 14.7292C16.0209 13.4375 16.6667 11.8611 16.6667 10C16.6667 8.13889 16.0209 6.56251 14.7292 5.27084C13.4375 3.97917 11.8611 3.33334 10 3.33334C8.13891 3.33334 6.56252 3.97917 5.27085 5.27084C3.97919 6.56251 3.33335 8.13889 3.33335 10C3.33335 11.8611 3.97919 13.4375 5.27085 14.7292C6.56252 16.0208 8.13891 16.6667 10 16.6667Z" fill="white"/>
</svg>
