<svg width="17" height="16" viewBox="0 0 17 16" fill="none" xmlns="http://www.w3.org/2000/svg">
<path d="M2.77758 6C3.86974 6 4.75511 5.10457 4.75511 4C4.75511 2.89543 3.86974 2 2.77758 2C1.68542 2 0.800049 2.89543 0.800049 4C0.800049 5.10457 1.68542 6 2.77758 6ZM2.77758 6L2.77758 14" stroke="white" stroke-width="1.6" stroke-linecap="round" stroke-linejoin="round"/>
<path d="M9.64868 2.5L10.6487 3.5M11.6487 4.5L10.6487 3.5M10.6487 3.5L11.6487 2.5M10.6487 3.5L9.64868 4.5" stroke="white" stroke-width="1.6" stroke-linecap="round" stroke-linejoin="round"/>
<path d="M10.6876 10V8C10.6876 7.58744 10.6876 6.5 10.6876 6.5M10.6876 10C10.6876 10 8.64868 10 8.71011 12C8.71011 13.1046 9.59547 14 10.6876 14C11.7798 14 12.6652 13.1046 12.6652 12C12.6652 10 10.6876 10 10.6876 10Z" stroke="white" stroke-width="1.6" stroke-linecap="round" stroke-linejoin="round"/>
</svg>
