<svg width="14" height="14" viewBox="0 0 14 14" fill="none" xmlns="http://www.w3.org/2000/svg">
<path d="M2.77758 4.79999C3.86974 4.79999 4.75511 3.90456 4.75511 2.79999C4.75511 1.69542 3.86974 0.799988 2.77758 0.799988C1.68542 0.799988 0.800049 1.69542 0.800049 2.79999C0.800049 3.90456 1.68542 4.79999 2.77758 4.79999ZM2.77758 4.79999L2.77758 12.8M12.6652 10.8C12.6652 11.9046 11.7798 12.8 10.6877 12.8C9.59553 12.8 8.71016 11.9046 8.71016 10.8C8.71016 9.69542 9.59553 8.79999 10.6877 8.79999C11.7798 8.79999 12.6652 9.69542 12.6652 10.8Z" stroke="white" stroke-width="1.6" stroke-linecap="round" stroke-linejoin="round"/>
<path d="M10.7168 3.13299C11.0262 3.13299 11.323 3.01007 11.5418 2.79128C11.7605 2.57249 11.8835 2.27574 11.8835 1.96632C11.8835 1.6569 11.7605 1.36016 11.5418 1.14136C11.323 0.922567 11.0262 0.799652 10.7168 0.799652C10.4074 0.799652 10.1106 0.922567 9.89184 1.14136C9.67305 1.36016 9.55013 1.6569 9.55013 1.96632C9.55013 2.27574 9.67305 2.57249 9.89184 2.79128C10.1106 3.01007 10.4074 3.13299 10.7168 3.13299ZM11.8834 5.96632C11.8834 6.27574 11.7605 6.57248 11.5417 6.79128C11.3229 7.01007 11.0261 7.13299 10.7167 7.13299C10.4073 7.13299 10.1106 7.01007 9.89176 6.79128C9.67297 6.57248 9.55005 6.27574 9.55005 5.96632C9.55005 5.65689 9.67297 5.36015 9.89176 5.14136C10.1106 4.92256 10.4073 4.79965 10.7167 4.79965C11.0261 4.79965 11.3229 4.92256 11.5417 5.14136C11.7605 5.36015 11.8834 5.65689 11.8834 5.96632Z" fill="white"/>
</svg>
