<svg width="17" height="16" viewBox="0 0 17 16" fill="none" xmlns="http://www.w3.org/2000/svg">
<path d="M2.77758 6C3.86974 6 4.75511 5.10457 4.75511 4C4.75511 2.89543 3.86974 2 2.77758 2C1.68542 2 0.800049 2.89543 0.800049 4C0.800049 5.10457 1.68542 6 2.77758 6ZM2.77758 6L2.77758 14M11.3469 7.5C10.2547 7.5 9.36934 8.39543 9.36934 9.5C9.36934 10.6046 10.2547 11.5 11.3469 11.5C12.439 11.5 13.3244 10.6046 13.3244 9.5C13.3244 8.39543 12.439 7.5 11.3469 7.5" stroke="white" stroke-width="1.6" stroke-linecap="round" stroke-linejoin="round"/>
<path d="M3.20859 6.31218C3.02617 6.20383 2.80818 6.17238 2.60257 6.22476C2.39697 6.27713 2.22059 6.40904 2.11223 6.59146C2.00388 6.77388 1.97243 6.99187 2.0248 7.19747C2.07718 7.40308 2.20908 7.57946 2.3915 7.68782C2.3915 7.68782 2.3915 7.68782 2.3915 7.68782C2.50007 7.75186 2.59873 7.80818 2.70331 7.86713C3.10287 8.09137 3.50755 8.30637 3.93896 8.50612C4.12507 8.59173 4.31664 8.67492 4.52584 8.75154C5.242 9.02462 6.0056 9.13704 6.62189 9.27991C7.35193 9.44485 8.06613 9.58438 8.78693 9.72267C8.8977 9.74378 9.01339 9.76568 9.12537 9.78655C9.33397 9.82529 9.54943 9.77958 9.72433 9.65947C9.89923 9.53936 10.0193 9.35469 10.058 9.14608C10.0967 8.93748 10.051 8.72203 9.93092 8.54712C9.81081 8.37222 9.62614 8.25219 9.41754 8.21345C9.41754 8.21345 9.41754 8.21345 9.41754 8.21345C9.31103 8.1936 9.19527 8.17169 9.0866 8.15098C8.37805 8.01515 7.66558 7.87551 6.9782 7.72009C6.25386 7.55566 5.64823 7.46842 5.07426 7.24846C4.92731 7.19479 4.7679 7.12642 4.60891 7.05314C4.23773 6.88148 3.85848 6.68088 3.48817 6.47285C3.39297 6.41925 3.2941 6.36263 3.20859 6.31218Z" fill="white"/>
</svg>
