<svg width="17" height="16" viewBox="0 0 17 16" fill="none" xmlns="http://www.w3.org/2000/svg">
<path d="M10.6877 10C9.59553 10 8.71016 10.8954 8.71016 12C8.71016 13.1046 9.59553 14 10.6877 14C11.7798 14 12.6652 13.1046 12.6652 12C12.6652 10.8954 11.7798 10 10.6877 10ZM10.6877 10L10.6877 5.33333C10.6877 4.97971 10.5488 4.64057 10.3016 4.39052C10.0543 4.14048 9.71899 4 9.36934 4H7.39181M2.77758 6C3.86974 6 4.75511 5.10457 4.75511 4C4.75511 2.89543 3.86974 2 2.77758 2C1.68542 2 0.800049 2.89543 0.800049 4C0.800049 5.10457 1.68542 6 2.77758 6ZM2.77758 6L2.77758 14" stroke="white" stroke-width="1.6" stroke-linecap="round" stroke-linejoin="round"/>
</svg>
