<svg width="350" height="350" viewBox="0 0 350 350" fill="none" xmlns="http://www.w3.org/2000/svg">
    <g clip-path="url(#clip0_272_575)">
        <path
            d="M332.652 236.483C323.47 232.919 316.849 221.066 315.07 213.821C310.322 206.459 302.61 202.247 294.42 197.855C295.248 195.364 294.659 186.218 291.212 186.218C288.557 186.218 287.531 189.542 282.666 187.88C282.666 187.88 281.003 177.555 273.997 176.365C264.705 174.79 268.415 180.518 262.838 181.469C242.177 182.42 237.224 175.187 224.642 171.622C212.053 168.064 205.304 178.302 189.694 176.167C176.4 174.347 131.682 158.725 96.6117 181.557C72.5433 197.225 49.1167 227.302 43.0967 241.232C37.0825 255.168 28.9333 305.194 22.7558 309.464C16.5842 313.74 22.5108 343.461 33.2033 346.272C42.2275 348.647 54.2617 345.637 57.1142 345.397C59.7275 332.815 46.7425 337.173 45.6342 334.32C42.6183 326.573 63.2042 316.75 72.3858 300.918C81.5675 285.087 94.9492 259.916 94.9492 259.916C94.9492 259.916 97.0025 259.502 101.751 262.669C101.751 262.669 96.0575 272.592 94.115 278.355C126.093 304.955 173.67 278.594 180.833 252.63L186.929 250.81C186.929 250.81 178.459 270.521 166.897 278.355C166.664 293.796 179.247 332.5 186.136 338.911C193.019 345.322 203.945 354.375 229.116 347.597C233.864 336.805 221.515 337.96 211.779 336.776C202.043 335.586 208.933 300.207 209.405 293.317C209.883 286.434 224.128 258.411 237.428 245.35C254.765 246.062 262.996 240.602 268.059 238.939C269.08 238.601 270.416 238.717 271.985 239.143C273.262 243.559 275.689 250.343 279.382 254.135C277.533 250.198 279.714 245.974 281.575 243.39C282.783 248.325 285.932 254.998 294.659 256.865C291.923 253.126 291.842 250.419 292.781 248.471C297.442 250.361 302.103 251.673 306.215 251.364C306.215 251.364 313.693 256.509 317.613 256.509C321.533 256.509 321.137 250.337 321.848 248.675C322.56 247.012 328.971 246.896 329.682 245.589C330.394 244.283 336.811 242.777 332.652 236.483ZM247.462 319.737C254.316 321.813 248.587 332.978 249.299 338.438C250.017 343.898 257.851 350.309 269.249 327.273C280.647 304.243 253.336 281.208 248.354 274.318C243.367 267.435 252.612 247.853 252.612 247.853C252.612 247.853 247.637 248.914 239.645 248.914C232.995 253.896 215.262 284.649 215.262 292.524C215.262 292.524 232.814 315.303 247.462 319.737ZM176.161 345.322C156.45 351.021 130.567 343.187 128.666 335.825C126.77 328.463 106.703 297.039 96.0167 286.113C110.384 293.714 130.328 295.616 149.567 287.776C159.775 309.149 152.413 326.801 155.977 329.175C159.536 331.549 183.283 332.978 176.161 345.322Z"
            fill="#49454f" />
        <path
            d="M327.565 154.548C318.383 150.984 311.763 139.131 309.983 131.886C305.229 124.524 297.523 120.312 289.333 115.92C290.162 113.429 289.567 104.282 286.125 104.282C283.471 104.282 282.444 107.607 277.579 105.945C277.579 105.945 275.917 95.62 268.911 94.43C259.612 92.855 263.328 98.5833 257.746 99.5342C237.09 100.485 232.137 93.2517 219.549 89.6875C206.967 86.1292 200.217 96.3667 184.607 94.2317C171.307 92.4117 126.589 76.79 91.5192 99.6217C67.4567 115.29 44.0242 145.367 38.01 159.297C31.9958 173.232 23.8408 223.259 17.6692 227.529C11.4917 231.805 17.4183 261.526 28.1167 264.337C37.1408 266.712 49.175 263.702 52.0217 263.462C54.635 250.88 41.65 255.238 40.5417 252.385C37.5317 244.638 58.1175 234.815 67.2992 218.983C76.4808 203.152 89.8567 177.981 89.8567 177.981C89.8567 177.981 91.91 177.567 96.6642 180.734C96.6642 180.734 90.965 190.657 89.0283 196.42C121.007 223.02 168.577 196.659 175.741 170.695L181.837 168.875C181.837 168.875 173.367 188.586 161.811 196.42C161.572 211.861 174.16 250.565 181.043 256.976C187.932 263.387 198.858 272.44 224.029 265.662C228.777 254.87 216.428 256.025 206.692 254.841C196.957 253.651 203.84 218.272 204.318 211.383C204.791 204.499 219.042 176.476 232.336 163.415C249.673 164.127 257.903 158.667 262.972 157.004C263.993 156.666 265.329 156.783 266.898 157.208C268.17 161.624 270.602 168.408 274.289 172.2C272.446 168.263 274.622 164.039 276.488 161.455C277.69 166.39 280.846 173.063 289.567 174.93C286.831 171.191 286.755 168.484 287.694 166.536C292.349 168.426 297.01 169.738 301.122 169.429C301.122 169.429 308.607 174.574 312.521 174.574C316.441 174.574 316.044 168.403 316.762 166.74C317.473 165.077 323.884 164.961 324.596 163.654C325.307 162.347 331.718 160.842 327.565 154.548ZM242.369 237.802C249.223 239.872 243.501 251.038 244.212 256.503C244.924 261.963 252.758 268.374 264.157 245.338C275.561 222.308 248.249 199.272 243.262 192.383C238.274 185.5 247.526 165.918 247.526 165.918C247.526 165.918 242.55 166.979 234.552 166.979C227.908 171.961 210.175 202.714 210.175 210.589C210.175 210.589 227.727 233.368 242.369 237.802ZM171.074 263.387C151.363 269.086 125.475 261.252 123.579 253.89C121.677 246.528 101.611 215.104 90.9242 204.178C105.292 211.779 125.242 213.681 144.474 205.841C154.688 227.214 147.327 244.866 150.885 247.24C154.449 249.614 178.197 251.037 171.074 263.387Z"
            fill="#49454f" />
        <path
            d="M333.853 67.4158C324.672 63.8517 318.051 51.9983 316.266 44.7533C311.517 37.3917 303.812 33.18 295.622 28.7875C296.45 26.2908 295.855 17.15 292.413 17.15C289.759 17.15 288.732 20.475 283.867 18.8125C283.867 18.8125 282.205 8.48167 275.199 7.29751C265.901 5.72251 269.617 11.4508 264.034 12.4017C243.378 13.3525 238.426 6.11917 225.837 2.55501C213.255 -1.00916 206.5 9.23417 190.896 7.09917C177.596 5.27917 132.877 -10.3483 97.8075 12.4892C73.745 28.1517 50.3125 58.2342 44.2983 72.1642C38.2842 86.0942 30.1292 136.121 23.9575 140.397C17.78 144.673 23.7067 174.387 34.405 177.205C43.4292 179.579 55.4633 176.569 58.31 176.33C60.9233 163.742 47.9383 168.099 46.83 165.253C43.82 157.506 64.4058 147.677 73.5875 131.845C82.7692 116.019 96.145 90.8483 96.145 90.8483C96.145 90.8483 98.1983 90.4342 102.952 93.5958C102.952 93.5958 97.2533 103.524 95.3167 109.288C127.295 135.888 174.866 109.527 182.029 83.5625L188.125 81.7425C188.125 81.7425 179.655 101.453 168.099 109.288C167.86 124.723 180.448 163.432 187.332 169.843C194.221 176.254 205.147 185.307 230.317 178.523C235.066 167.738 222.717 168.892 212.981 167.702C203.245 166.518 210.128 131.133 210.607 124.25C211.079 117.361 225.33 89.3433 238.624 76.2825C255.961 76.9942 264.192 71.5283 269.261 69.8658C270.282 69.5333 271.617 69.65 273.187 70.07C274.458 74.4858 276.891 81.2758 280.577 85.0675C278.734 81.1242 280.91 76.9008 282.777 74.3167C283.978 79.2575 287.134 85.9308 295.855 87.7975C293.119 84.0583 293.043 81.3458 293.982 79.4033C298.637 81.2875 303.298 82.6058 307.411 82.2967C307.411 82.2967 314.895 87.4417 318.809 87.4417C322.729 87.4417 322.332 81.2642 323.044 79.6075C323.762 77.945 330.172 77.8225 330.884 76.5158C331.596 75.2092 338.007 73.71 333.853 67.4158ZM248.657 150.669C255.512 152.74 249.789 163.905 250.501 169.365C251.212 174.831 259.047 181.242 270.445 158.206C281.843 135.17 254.537 112.14 249.55 105.251C244.562 98.3675 253.814 78.785 253.814 78.785C253.814 78.785 248.838 79.8408 240.841 79.8408C234.197 84.8283 216.463 115.582 216.463 123.457C216.463 123.457 234.016 146.236 248.657 150.669ZM177.362 176.254C157.652 181.953 131.763 174.119 129.868 166.757C127.966 159.396 107.899 127.972 97.2125 117.046C111.58 124.647 131.53 126.543 150.762 118.708C160.977 140.082 153.615 157.733 157.173 160.107C160.737 162.482 184.485 163.905 177.362 176.254Z"
            fill="#49454f" />
    </g>
    <defs>
        <clipPath id="clip0_272_575">
            <rect width="350" height="350" fill="white" />
        </clipPath>
    </defs>
</svg>
