<svg width="322" height="461" viewBox="0 0 322 461" fill="none" xmlns="http://www.w3.org/2000/svg">
<path d="M290 206.373H50.5L0 253.373L77.5 404.873L106.5 369.373L188 460.873L271 317.373L290 331.373L320.5 230.873L290 206.373Z" fill="#95C5EF"/>
<path d="M1 253.873L79.5 405.873L110.5 371.873L189 459.873L234 381.873L176.5 302.373L110.5 345.373L118 291.373L1 253.873Z" fill="#60A6E3"/>
<path d="M321.5 232.873L52.5 207.373H293.5L321.5 232.873Z" fill="#DEEFFF"/>
<path d="M284.248 154.507C278.293 152.175 273.999 144.419 272.845 139.679C269.766 134.863 264.764 132.107 259.452 129.233C259.99 127.603 259.607 121.619 257.372 121.619C255.65 121.619 254.984 123.794 251.829 122.706C251.829 122.706 250.751 115.951 246.207 115.172C240.18 114.142 242.586 117.89 238.969 118.512C225.569 119.134 222.357 114.401 214.196 112.069C206.032 109.741 201.654 116.44 191.53 115.043C182.908 113.852 153.905 103.631 131.16 118.569C115.549 128.821 100.356 148.5 96.4512 157.614C92.5506 166.732 87.2653 199.463 83.2588 202.257C79.256 205.055 83.0999 224.501 90.0347 226.34C95.8875 227.894 103.693 225.924 105.543 225.768C107.238 217.535 98.8158 220.386 98.097 218.52C96.141 213.452 109.492 207.024 115.447 196.666C121.402 186.307 130.081 169.838 130.081 169.838C130.081 169.838 131.413 169.568 134.493 171.64C134.493 171.64 130.8 178.132 129.54 181.903C150.28 199.307 181.137 182.059 185.783 165.071L189.737 163.881C189.737 163.881 184.243 176.777 176.745 181.903C176.594 192.006 184.754 217.329 189.222 221.524C193.687 225.718 200.773 231.642 217.098 227.207C220.178 220.146 212.168 220.902 205.854 220.127C199.539 219.348 204.008 196.2 204.314 191.693C204.624 187.189 213.863 168.854 222.489 160.308C233.733 160.774 239.072 157.202 242.355 156.114C243.018 155.892 243.884 155.969 244.902 156.247C245.73 159.137 247.304 163.575 249.699 166.056C248.5 163.48 249.915 160.717 251.121 159.026C251.905 162.255 253.948 166.621 259.607 167.842C257.833 165.396 257.78 163.625 258.389 162.35C261.412 163.587 264.435 164.446 267.102 164.243C267.102 164.243 271.952 167.61 274.495 167.61C277.037 167.61 276.78 163.572 277.242 162.484C277.703 161.396 281.861 161.32 282.323 160.465C282.784 159.61 286.946 158.625 284.248 154.507ZM228.997 208.978C233.442 210.337 229.727 217.642 230.188 221.215C230.654 224.787 235.735 228.982 243.127 213.91C250.52 198.841 232.806 183.769 229.575 179.262C226.341 174.758 232.337 161.946 232.337 161.946C232.337 161.946 229.11 162.64 223.927 162.64C219.614 165.9 208.113 186.021 208.113 191.174C208.113 191.174 219.497 206.078 228.997 208.978ZM182.753 225.718C169.969 229.447 153.182 224.321 151.949 219.505C150.719 214.688 137.705 194.128 130.774 186.979C140.092 191.952 153.027 193.196 165.505 188.067C172.125 202.051 167.351 213.6 169.663 215.154C171.97 216.707 187.372 217.642 182.753 225.718Z" fill="#79747E"/>
<path d="M280.95 100.992C274.995 98.6599 270.701 90.9044 269.547 86.1641C266.463 81.3475 261.465 78.5919 256.154 75.7179C256.691 74.0882 256.305 68.1037 254.073 68.1037C252.351 68.1037 251.685 70.2791 248.53 69.1914C248.53 69.1914 247.452 62.4359 242.908 61.6573C236.877 60.6268 239.287 64.3748 235.667 64.9969C222.27 65.619 219.058 60.8863 210.894 58.5544C202.733 56.2262 198.356 62.9244 188.231 61.5275C179.605 60.3367 150.602 50.1157 127.857 65.0541C112.251 75.3057 97.053 94.9844 93.1524 104.099C89.2518 113.217 83.9627 145.948 79.9599 148.742C75.9534 151.54 79.7973 170.986 86.7359 172.825C92.5887 174.379 100.394 172.409 102.24 172.253C103.935 164.02 95.5132 166.871 94.7944 165.005C92.8422 159.936 106.194 153.509 112.149 143.151C118.104 132.792 126.779 116.323 126.779 116.323C126.779 116.323 128.11 116.052 131.194 118.125C131.194 118.125 127.498 124.617 126.241 128.388C146.982 145.792 177.835 128.544 182.481 111.556L186.434 110.366C186.434 110.366 180.941 123.262 173.446 128.388C173.291 138.491 181.455 163.814 185.92 168.009C190.388 172.203 197.474 178.127 213.799 173.692C216.879 166.631 208.869 167.387 202.555 166.612C196.241 165.833 200.705 142.685 201.015 138.178C201.322 133.674 210.564 115.339 219.187 106.793C230.431 107.259 235.769 103.686 239.057 102.599C239.719 102.377 240.585 102.454 241.603 102.732C242.428 105.621 244.005 110.06 246.396 112.541C245.201 109.965 246.612 107.202 247.823 105.511C248.602 108.74 250.649 113.106 256.305 114.327C254.531 111.881 254.481 110.11 255.09 108.835C258.11 110.072 261.132 110.93 263.8 110.728C263.8 110.728 268.654 114.094 271.192 114.094C273.735 114.094 273.477 110.056 273.943 108.969C274.404 107.881 278.562 107.805 279.024 106.95C279.485 106.095 283.643 105.11 280.95 100.992ZM225.694 155.463C230.139 156.818 226.428 164.123 226.889 167.7C227.351 171.272 232.432 175.466 239.825 160.394C247.221 145.326 229.508 130.254 226.273 125.747C223.038 121.243 229.038 108.431 229.038 108.431C229.038 108.431 225.811 109.125 220.624 109.125C216.315 112.385 204.814 132.506 204.814 137.659C204.814 137.659 216.198 152.563 225.694 155.463ZM179.454 172.203C166.67 175.932 149.88 170.806 148.65 165.99C147.417 161.173 134.402 140.613 127.471 133.464C136.789 138.437 149.728 139.681 162.202 134.552C168.827 148.536 164.052 160.085 166.36 161.639C168.672 163.192 184.073 164.123 179.454 172.203Z" fill="#79747E"/>
<path d="M285.028 43.9823C279.073 41.6503 274.779 33.8949 273.621 29.1546C270.542 24.3379 265.544 21.5823 260.232 18.7083C260.769 17.0748 260.383 11.0941 258.151 11.0941C256.43 11.0941 255.764 13.2696 252.609 12.1818C252.609 12.1818 251.53 5.42253 246.987 4.64774C240.956 3.61724 243.366 7.36521 239.745 7.98733C226.348 8.60944 223.136 3.87678 214.972 1.54479C206.811 -0.78719 202.43 5.91488 192.31 4.51798C183.684 3.32718 154.681 -6.89767 131.935 8.04458C116.329 18.2923 101.131 37.9749 97.2309 47.0891C93.3302 56.2033 88.0411 88.935 84.0384 91.7326C80.0318 94.5302 83.8757 113.972 90.8143 115.816C96.6671 117.369 104.472 115.4 106.318 115.243C108.013 107.007 99.5917 109.858 98.8728 107.995C96.9206 102.927 110.272 96.4958 116.227 86.1374C122.182 75.7828 130.857 59.3139 130.857 59.3139C130.857 59.3139 132.189 59.0429 135.272 61.1115C135.272 61.1115 131.576 67.6075 130.32 71.3783C151.06 88.7824 181.913 71.5348 186.559 54.5468L190.513 53.356C190.513 53.356 185.019 66.2526 177.525 71.3783C177.369 81.4772 185.534 106.805 189.998 110.999C194.466 115.194 201.552 121.117 217.878 116.678C220.957 109.621 212.948 110.377 206.634 109.598C200.319 108.824 204.783 85.6718 205.094 81.1681C205.4 76.6606 214.643 58.3292 223.265 49.7836C234.509 50.2493 239.847 46.6731 243.135 45.5853C243.797 45.3678 244.664 45.4441 245.681 45.7189C246.506 48.6081 248.084 53.0507 250.475 55.5315C249.279 52.9515 250.69 50.1882 251.901 48.4974C252.68 51.7301 254.727 56.0964 260.383 57.3177C258.609 54.8713 258.56 53.0965 259.169 51.8256C262.188 53.0583 265.211 53.9209 267.878 53.7186C267.878 53.7186 272.732 57.0849 275.271 57.0849C277.813 57.0849 277.556 53.0431 278.017 51.9591C278.483 50.8714 282.641 50.7912 283.102 49.9363C283.564 49.0814 287.722 48.1005 285.028 43.9823ZM229.772 98.4538C234.218 99.8087 230.506 107.114 230.968 110.686C231.429 114.262 236.511 118.457 243.903 103.385C251.296 88.3129 233.586 73.2447 230.351 68.7372C227.116 64.2335 233.117 51.421 233.117 51.421C233.117 51.421 229.89 52.1118 224.703 52.1118C220.394 55.3751 208.892 75.4965 208.892 80.649C208.892 80.649 220.276 95.5531 229.772 98.4538ZM183.532 115.194C170.749 118.923 153.958 113.797 152.729 108.98C151.495 104.164 138.481 83.6031 131.549 76.4545C140.868 81.4276 153.807 82.6681 166.28 77.5423C172.905 91.5265 168.131 103.076 170.438 104.629C172.75 106.183 188.152 107.114 183.532 115.194Z" fill="#79747E"/>
</svg>
