<svg xmlns="http://www.w3.org/2000/svg" width="60" height="60" viewBox="0 0 60 60" fill="none">
  <g clip-path="url(#clip0_308_700)">
    <path d="M57.0262 40.54C55.4522 39.929 54.3172 37.897 54.0122 36.655C53.1982 35.393 51.8762 34.671 50.4722 33.918C50.6142 33.491 50.5132 31.923 49.9222 31.923C49.4672 31.923 49.2912 32.493 48.4572 32.208C48.4572 32.208 48.1722 30.438 46.9712 30.234C45.3782 29.964 46.0142 30.946 45.0582 31.109C41.5162 31.272 40.6672 30.032 38.5102 29.421C36.3522 28.811 35.1952 30.566 32.5192 30.2C30.2402 29.888 22.5742 27.21 16.5622 31.124C12.4362 33.81 8.42018 38.966 7.38818 41.354C6.35718 43.743 4.96018 52.319 3.90118 53.051C2.84318 53.784 3.85918 58.879 5.69218 59.361C7.23918 59.768 9.30218 59.252 9.79118 59.211C10.2392 57.054 8.01318 57.801 7.82318 57.312C7.30618 55.984 10.8352 54.3 12.4092 51.586C13.9832 48.872 16.2772 44.557 16.2772 44.557C16.2772 44.557 16.6292 44.486 17.4432 45.029C17.4432 45.029 16.4672 46.73 16.1342 47.718C21.6162 52.278 29.7722 47.759 31.0002 43.308L32.0452 42.996C32.0452 42.996 30.5932 46.375 28.6112 47.718C28.5712 50.365 30.7282 57 31.9092 58.099C33.0892 59.198 34.9622 60.75 39.2772 59.588C40.0912 57.738 37.9742 57.936 36.3052 57.733C34.6362 57.529 35.8172 51.464 35.8982 50.283C35.9802 49.103 38.4222 44.299 40.7022 42.06C43.6742 42.182 45.0852 41.246 45.9532 40.961C46.1282 40.903 46.3572 40.923 46.6262 40.996C46.8452 41.753 47.2612 42.916 47.8942 43.566C47.5772 42.891 47.9512 42.167 48.2702 41.724C48.4772 42.57 49.0172 43.714 50.5132 44.034C50.0442 43.393 50.0302 42.929 50.1912 42.595C50.9902 42.919 51.7892 43.144 52.4942 43.091C52.4942 43.091 53.7762 43.973 54.4482 43.973C55.1202 43.973 55.0522 42.915 55.1742 42.63C55.2962 42.345 56.3952 42.325 56.5172 42.101C56.6392 41.877 57.7392 41.619 57.0262 40.54ZM42.4222 54.812C43.5972 55.168 42.6152 57.082 42.7372 58.018C42.8602 58.954 44.2032 60.053 46.1572 56.104C48.1112 52.156 43.4292 48.207 42.5752 47.026C41.7202 45.846 43.3052 42.489 43.3052 42.489C43.3052 42.489 42.4522 42.671 41.0822 42.671C39.9422 43.525 36.9022 48.797 36.9022 50.147C36.9022 50.147 39.9112 54.052 42.4222 54.812ZM30.1992 59.198C26.8202 60.175 22.3832 58.832 22.0572 57.57C21.7322 56.308 18.2922 50.921 16.4602 49.048C18.9232 50.351 22.3422 50.677 25.6402 49.333C27.3902 52.997 26.1282 56.023 26.7392 56.43C27.3492 56.837 31.4202 57.082 30.1992 59.198Z" fill="#49454F"/>
    <path d="M56.1542 26.494C54.5802 25.883 53.4452 23.851 53.1402 22.609C52.3252 21.347 51.0042 20.625 49.6002 19.872C49.7422 19.445 49.6402 17.877 49.0502 17.877C48.5952 17.877 48.4192 18.447 47.5852 18.162C47.5852 18.162 47.3002 16.392 46.0992 16.188C44.5052 15.918 45.1422 16.9 44.1852 17.063C40.6442 17.226 39.7952 15.986 37.6372 15.375C35.4802 14.765 34.3232 16.52 31.6472 16.154C29.3672 15.842 21.7012 13.164 15.6892 17.078C11.5642 19.764 7.54722 24.92 6.51622 27.308C5.48522 29.697 4.08722 38.273 3.02922 39.005C1.97022 39.738 2.98622 44.833 4.82022 45.315C6.36722 45.722 8.43022 45.206 8.91822 45.165C9.36622 43.008 7.14022 43.755 6.95022 43.266C6.43422 41.938 9.96322 40.254 11.5372 37.54C13.1112 34.826 15.4042 30.511 15.4042 30.511C15.4042 30.511 15.7562 30.44 16.5712 30.983C16.5712 30.983 15.5942 32.684 15.2622 33.672C20.7442 38.232 28.8992 33.713 30.1272 29.262L31.1722 28.95C31.1722 28.95 29.7202 32.329 27.7392 33.672C27.6982 36.319 29.8562 42.954 31.0362 44.053C32.2172 45.152 34.0902 46.704 38.4052 45.542C39.2192 43.692 37.1022 43.89 35.4332 43.687C33.7642 43.483 34.9442 37.418 35.0262 36.237C35.1072 35.057 37.5502 30.253 39.8292 28.014C42.8012 28.136 44.2122 27.2 45.0812 26.915C45.2562 26.857 45.4852 26.877 45.7542 26.95C45.9722 27.707 46.3892 28.87 47.0212 29.52C46.7052 28.845 47.0782 28.121 47.3982 27.678C47.6042 28.524 48.1452 29.668 49.6402 29.988C49.1712 29.347 49.1582 28.883 49.3192 28.549C50.1172 28.873 50.9162 29.098 51.6212 29.045C51.6212 29.045 52.9042 29.927 53.5752 29.927C54.2472 29.927 54.1792 28.869 54.3022 28.584C54.4242 28.299 55.5232 28.279 55.6452 28.055C55.7672 27.831 56.8662 27.573 56.1542 26.494ZM41.5492 40.766C42.7242 41.121 41.7432 43.035 41.8652 43.972C41.9872 44.908 43.3302 46.007 45.2842 42.058C47.2392 38.11 42.5572 34.161 41.7022 32.98C40.8472 31.8 42.4332 28.443 42.4332 28.443C42.4332 28.443 41.5802 28.625 40.2092 28.625C39.0702 29.479 36.0302 34.751 36.0302 36.101C36.0302 36.101 39.0392 40.006 41.5492 40.766ZM29.3272 45.152C25.9482 46.129 21.5102 44.786 21.1852 43.524C20.8592 42.262 17.4192 36.875 15.5872 35.002C18.0502 36.305 21.4702 36.631 24.7672 35.287C26.5182 38.951 25.2562 41.977 25.8662 42.384C26.4772 42.791 30.5482 43.035 29.3272 45.152Z" fill="#49454F"/>
    <path d="M57.2323 11.557C55.6583 10.946 54.5233 8.91401 54.2173 7.67201C53.4033 6.41001 52.0823 5.68801 50.6783 4.93501C50.8203 4.50701 50.7183 2.94001 50.1283 2.94001C49.6733 2.94001 49.4973 3.51001 48.6633 3.22501C48.6633 3.22501 48.3783 1.45401 47.1773 1.25101C45.5833 0.981014 46.2203 1.96301 45.2633 2.12601C41.7223 2.28901 40.8733 1.04901 38.7153 0.438014C36.5583 -0.172987 35.4003 1.58301 32.7253 1.21701C30.4453 0.905014 22.7793 -1.77399 16.7673 2.14101C12.6423 4.82601 8.62535 9.98301 7.59435 12.371C6.56335 14.759 5.16534 23.335 4.10734 24.068C3.04834 24.801 4.06434 29.895 5.89834 30.378C7.44535 30.785 9.50834 30.269 9.99635 30.228C10.4443 28.07 8.21834 28.817 8.02834 28.329C7.51234 27.001 11.0413 25.316 12.6153 22.602C14.1893 19.889 16.4823 15.574 16.4823 15.574C16.4823 15.574 16.8343 15.503 17.6493 16.045C17.6493 16.045 16.6723 17.747 16.3403 18.735C21.8223 23.295 29.9773 18.776 31.2053 14.325L32.2503 14.013C32.2503 14.013 30.7983 17.392 28.8173 18.735C28.7763 21.381 30.9343 28.017 32.1143 29.116C33.2953 30.215 35.1683 31.767 39.4833 30.604C40.2973 28.755 38.1803 28.953 36.5113 28.749C34.8423 28.546 36.0223 22.48 36.1043 21.3C36.1853 20.119 38.6283 15.316 40.9073 13.077C43.8793 13.199 45.2903 12.262 46.1593 11.977C46.3343 11.92 46.5633 11.94 46.8323 12.012C47.0503 12.769 47.4673 13.933 48.0993 14.583C47.7833 13.907 48.1563 13.183 48.4763 12.74C48.6823 13.587 49.2233 14.731 50.7183 15.051C50.2493 14.41 50.2363 13.945 50.3973 13.612C51.1953 13.935 51.9943 14.161 52.6993 14.108C52.6993 14.108 53.9823 14.99 54.6533 14.99C55.3253 14.99 55.2573 13.931 55.3793 13.647C55.5023 13.362 56.6013 13.341 56.7233 13.117C56.8453 12.893 57.9444 12.636 57.2323 11.557ZM42.6273 25.829C43.8023 26.184 42.8213 28.098 42.9433 29.034C43.0653 29.971 44.4083 31.07 46.3623 27.121C48.3163 23.172 43.6353 19.224 42.7803 18.043C41.9253 16.863 43.5113 13.506 43.5113 13.506C43.5113 13.506 42.6583 13.687 41.2873 13.687C40.1483 14.542 37.1083 19.814 37.1083 21.164C37.1083 21.164 40.1173 25.069 42.6273 25.829ZM30.4053 30.215C27.0263 31.192 22.5883 29.849 22.2633 28.587C21.9373 27.325 18.4973 21.938 16.6653 20.065C19.1283 21.368 22.5483 21.693 25.8453 20.35C27.5963 24.014 26.3343 27.04 26.9443 27.447C27.5553 27.854 31.6263 28.098 30.4053 30.215Z" fill="#49454F"/>
  </g>
  <defs>
    <clipPath id="clip0_308_700">
      <rect width="60" height="60" fill="white"/>
    </clipPath>
  </defs>
</svg>