<svg width="32" height="32" viewBox="0 0 32 32" fill="none" xmlns="http://www.w3.org/2000/svg">
<g clip-path="url(#clip0_1_2208)">
<rect width="32" height="32" rx="16" fill="#0CA2E3" fill-opacity="0.72"/>
<path d="M18.7501 19.9167L19.9167 18.75L16.8334 15.6667V11.8333H15.1667V16.3333L18.7501 19.9167ZM16.0001 24.3333C14.8473 24.3333 13.764 24.1146 12.7501 23.6771C11.7362 23.2396 10.8542 22.6458 10.1042 21.8958C9.35425 21.1458 8.7605 20.2639 8.323 19.25C7.8855 18.2361 7.66675 17.1528 7.66675 16C7.66675 14.8472 7.8855 13.7639 8.323 12.75C8.7605 11.7361 9.35425 10.8542 10.1042 10.1042C10.8542 9.35416 11.7362 8.76041 12.7501 8.32291C13.764 7.88541 14.8473 7.66666 16.0001 7.66666C17.1529 7.66666 18.2362 7.88541 19.2501 8.32291C20.264 8.76041 21.1459 9.35416 21.8959 10.1042C22.6459 10.8542 23.2397 11.7361 23.6772 12.75C24.1147 13.7639 24.3334 14.8472 24.3334 16C24.3334 17.1528 24.1147 18.2361 23.6772 19.25C23.2397 20.2639 22.6459 21.1458 21.8959 21.8958C21.1459 22.6458 20.264 23.2396 19.2501 23.6771C18.2362 24.1146 17.1529 24.3333 16.0001 24.3333ZM16.0001 22.6667C17.8473 22.6667 19.4202 22.0174 20.7188 20.7187C22.0174 19.4201 22.6667 17.8472 22.6667 16C22.6667 14.1528 22.0174 12.5799 20.7188 11.2812C19.4202 9.98263 17.8473 9.33332 16.0001 9.33332C14.1529 9.33332 12.5799 9.98263 11.2813 11.2812C9.98272 12.5799 9.33341 14.1528 9.33341 16C9.33341 17.8472 9.98272 19.4201 11.2813 20.7187C12.5799 22.0174 14.1529 22.6667 16.0001 22.6667Z" fill="white"/>
</g>
<rect x="0.5" y="0.5" width="31" height="31" rx="15.5" stroke="#0CA2E3"/>
<defs>
<clipPath id="clip0_1_2208">
<rect width="32" height="32" rx="16" fill="white"/>
</clipPath>
</defs>
</svg>
