<svg width="32" height="32" viewBox="0 0 32 32" fill="none" xmlns="http://www.w3.org/2000/svg">
<g clip-path="url(#clip0_1_2214)">
<rect width="32" height="32" rx="16" fill="#FF9E02" fill-opacity="0.68"/>
<path d="M16.0001 20.1667C16.2362 20.1667 16.4341 20.0868 16.5938 19.9271C16.7536 19.7674 16.8334 19.5694 16.8334 19.3333C16.8334 19.0972 16.7536 18.8993 16.5938 18.7396C16.4341 18.5799 16.2362 18.5 16.0001 18.5C15.764 18.5 15.5661 18.5799 15.4063 18.7396C15.2466 18.8993 15.1667 19.0972 15.1667 19.3333C15.1667 19.5694 15.2466 19.7674 15.4063 19.9271C15.5661 20.0868 15.764 20.1667 16.0001 20.1667ZM15.1667 16.8333H16.8334V11.8333H15.1667V16.8333ZM16.0001 24.3333C14.8473 24.3333 13.764 24.1146 12.7501 23.6771C11.7362 23.2396 10.8542 22.6458 10.1042 21.8958C9.35425 21.1458 8.7605 20.2639 8.323 19.25C7.8855 18.2361 7.66675 17.1528 7.66675 16C7.66675 14.8472 7.8855 13.7639 8.323 12.75C8.7605 11.7361 9.35425 10.8542 10.1042 10.1042C10.8542 9.35416 11.7362 8.76041 12.7501 8.32291C13.764 7.88541 14.8473 7.66666 16.0001 7.66666C17.1529 7.66666 18.2362 7.88541 19.2501 8.32291C20.264 8.76041 21.1459 9.35416 21.8959 10.1042C22.6459 10.8542 23.2397 11.7361 23.6772 12.75C24.1147 13.7639 24.3334 14.8472 24.3334 16C24.3334 17.1528 24.1147 18.2361 23.6772 19.25C23.2397 20.2639 22.6459 21.1458 21.8959 21.8958C21.1459 22.6458 20.264 23.2396 19.2501 23.6771C18.2362 24.1146 17.1529 24.3333 16.0001 24.3333Z" fill="white"/>
</g>
<rect x="0.5" y="0.5" width="31" height="31" rx="15.5" stroke="#FF9E02" stroke-opacity="0.68"/>
<defs>
<clipPath id="clip0_1_2214">
<rect width="32" height="32" rx="16" fill="white"/>
</clipPath>
</defs>
</svg>
